<?xml version="1.0" encoding="UTF-8"?>
<svg width="481px" height="590px" viewBox="0 0 481 590" version="1.1" xmlns="http://www.w3.org/2000/svg" xmlns:xlink="http://www.w3.org/1999/xlink">
    <!-- Generator: Sketch 45.1 (43504) - http://www.bohemiancoding.com/sketch -->
    <title>Logo</title>
    <desc>Created with Sketch.</desc>
    <defs></defs>
    <g id="Landing-Page" stroke="none" stroke-width="1" fill="none" fill-rule="evenodd">
        <g id="Splash-screen" transform="translate(-869.000000, -291.000000)" fill="#005C56">
            <g id="Logo" transform="translate(869.000000, 291.000000)">
                <path d="M252.445335,582.891805 C247.340064,590.033281 237.409871,591.685854 230.268394,586.565829 C228.615821,585.400175 227.214085,583.909908 226.122206,582.213069 C166.039371,489.3001 138.771916,474.485962 33.0515047,423.448014 C15.0207521,414.78676 -0.0294669095,391.872064 4.33238168e-05,371.849371 C0.0590637905,345.452467 6.18243721,307.94496 6.27096791,270.703046 C6.32998838,235.512093 0.339411007,200.276874 0.398431474,173.422562 C0.383676357,144.827146 15.7142426,118.415487 40.547104,104.23582 C40.547104,104.23582 92.5441351,83.7557176 128.162987,62.3903087 C165.8328,39.6969392 182.653633,24.3958832 201.008998,12.0310954 C225.26641,-4.06673685 256.827604,-4.00771638 281.025996,12.1934017 C297.035297,23.3040046 312.55768,40.2428785 345.712427,59.4687956 C382.555953,80.8489596 417.200967,92.7268286 441.089501,105.032596 C466.483057,118.135139 481.002092,145.682942 480.943072,174.396399 C480.898806,199.819465 473.904881,233.269315 473.831105,266.483083 C473.75733,307.812164 480.603704,348.905164 480.544683,375.966048 C480.500418,394.557495 471.85392,414.594944 454.339596,420.865868 C323.446956,467.610078 303.07014,511.078652 252.445335,582.891805 Z" id="Fill-149"></path>
            </g>
        </g>
    </g>
</svg>