<svg width="261px" height="34px" version="1.1" xmlns="http://www.w3.org/2000/svg" viewBox="0 0 493.91 51.41"><defs><style>.cls-1{fill:#111919;}</style></defs><title>Wordmark</title><g id="Layer_2" data-name="Layer 2"><g id="Ebene_1" data-name="Ebene 1"><path class="cls-1" d="M25.25,13.15V50.37H18.41a2.83,2.83,0,0,1-2.83-2.83V10.16H0V4.54A3.5,3.5,0,0,1,3.5,1H40.84V7.26a2.89,2.89,0,0,1-2.89,2.89h-9.7A3,3,0,0,0,25.25,13.15Z"/><path class="cls-1" d="M78.48,39.1H60.31a1.33,1.33,0,0,0-1.25.88l-3.47,9.52a1.33,1.33,0,0,1-1.25.88H45.11L63.71,1.9A1.33,1.33,0,0,1,65,1h9.3a1.33,1.33,0,0,1,1.25.86L93.26,48.56A1.33,1.33,0,0,1,92,50.37H84.45a1.33,1.33,0,0,1-1.25-.88L79.73,40A1.33,1.33,0,0,0,78.48,39.1Zm-14-8.77H74.3a1.33,1.33,0,0,0,1.25-1.79L70.64,15.11a1.33,1.33,0,0,0-2.5,0L63.23,28.54A1.33,1.33,0,0,0,64.48,30.33Z"/><path class="cls-1" d="M128.53,13.12c-2.52,0-1.9-4.63-7.62-4.63-4.26,0-7.05,3-7.05,6.26,0,2.71,1.59,4.87,4.89,5.57L125,21.64c8.2,1.74,12.58,7.58,12.58,14.54,0,7.59-5.78,15.24-16.27,15.24C109.42,51.41,105.66,43,105,36c0,0,6.43-.11,8.37.86,3.69,1.84,1.74,6.56,8.09,6.56,4.7,0,7.31-3.11,7.31-6.59,0-2.85-2-5.08-5.47-5.84L117,29.57c-7.18-1.6-11.82-6.68-11.82-14.12A15.52,15.52,0,0,1,120.85,0c10.93,0,14.43,7.23,15.45,12.8C136.3,12.8,132.67,13.12,128.53,13.12Z"/><path class="cls-1" d="M165.07,39.06v8.41a2.91,2.91,0,0,1-2.91,2.91h-3.25A2.91,2.91,0,0,1,156,47.46V4A2.91,2.91,0,0,1,158.91,1h3.25A2.91,2.91,0,0,1,165.07,4V18.57a1.74,1.74,0,0,0,3.08,1.12l14.71-17.6a2.91,2.91,0,0,1,2.23-1h10.54L180.56,18.59a6.87,6.87,0,0,0-.5,8.29l15.7,23.5H186a2.91,2.91,0,0,1-2.43-1.3L170.85,29.92l-4.43,5.37A5.93,5.93,0,0,0,165.07,39.06Z"/><path class="cls-1" d="M390.71,39.06v8.41a2.91,2.91,0,0,1-2.91,2.91h-3.25a2.91,2.91,0,0,1-2.91-2.91V4A2.91,2.91,0,0,1,384.56,1h3.25A2.91,2.91,0,0,1,390.71,4V18.57a1.74,1.74,0,0,0,3.08,1.12l14.71-17.6a2.91,2.91,0,0,1,2.23-1h10.54L406.21,18.59a6.87,6.87,0,0,0-.5,8.29l15.7,23.5H411.6a2.91,2.91,0,0,1-2.43-1.3L396.5,29.92l-4.43,5.37A5.93,5.93,0,0,0,390.71,39.06Z"/><path class="cls-1" d="M221.22,34.51V44a6.32,6.32,0,0,1-6.32,6.32h-3.35V5.21A4.17,4.17,0,0,1,215.72,1h15.1c9.6,0,13.89,6.61,13.89,15.17,0,6.89-2.2,12.11-8.67,14l10.57,20.18h-4.49a9.44,9.44,0,0,1-8.53-5.45c-2-4.27-4.51-10-8.83-12.32A2.32,2.32,0,0,0,221.22,34.51ZM229,23.1c4.87,0,5.89-2.78,5.89-6.82s-1-6.89-5.89-6.89h-7.79V23.1Z"/><path class="cls-1" d="M282.94,0c12.83,0,24.26,9.81,24.26,25.74s-11.43,25.67-24.26,25.67-24.2-9.81-24.2-25.67S270.18,0,282.94,0Zm0,42.09c7.31,0,14.76-5.29,14.76-16.42S290.26,9.25,282.94,9.25s-14.69,5.29-14.69,16.42S275.7,42.09,282.94,42.09Z"/><path class="cls-1" d="M343.27,0c12.83,0,24.26,9.81,24.26,25.74S356.1,51.41,343.27,51.41s-24.2-9.81-24.2-25.67S330.51,0,343.27,0Zm0,42.09c7.31,0,14.76-5.29,14.76-16.42S350.58,9.25,343.27,9.25s-14.69,5.29-14.69,16.42S336,42.09,343.27,42.09Z"/><path class="cls-1" d="M437.42,50.37V3.73A2.69,2.69,0,0,1,440.1,1h7.05V47.69a2.69,2.69,0,0,1-2.69,2.69Z"/><path class="cls-1" d="M465.68,47.72V3.93A2.77,2.77,0,0,1,468.32,1h25.59L493,4.38a7.45,7.45,0,0,1-7,5.7h-8.82A2.83,2.83,0,0,0,474.45,13v8.33h16.38l-.55,2.82a6.78,6.78,0,0,1-6.47,5.74h-7a2.53,2.53,0,0,0-2.41,2.64v8.77h18.33l-.51,3a6.89,6.89,0,0,1-6.58,6H468.1A2.54,2.54,0,0,1,465.68,47.72Z"/></g></g></svg>