<?xml version="1.0" encoding="UTF-8"?>
<svg width="492px" height="88px" viewBox="0 0 492 88" version="1.1" xmlns="http://www.w3.org/2000/svg" xmlns:xlink="http://www.w3.org/1999/xlink">
    <!-- Generator: Sketch 45.1 (43504) - http://www.bohemiancoding.com/sketch -->
    <title>Task/default</title>
    <desc>Created with Sketch.</desc>
    <defs></defs>
    <g id="Symbols" stroke="none" stroke-width="1" fill="none" fill-rule="evenodd">
        <g id="Task/default">
            <path d="M457.451483,37.3084096 C457.727586,37.0420913 458.162263,37.0420913 458.438366,37.3084096 C458.705142,37.5657306 458.705142,37.9939992 458.438366,38.2507204 L453.434302,43.0774396 L469.947031,43.0774396 C470.331959,43.0774396 470.647861,43.372549 470.647861,43.7438351 C470.647861,44.1151212 470.331959,44.4198277 469.947031,44.4198277 L453.434302,44.4198277 L458.438366,49.2375496 C458.705142,49.5038679 458.705142,49.9327363 458.438366,50.1894575 C458.162263,50.4557758 457.727586,50.4557758 457.451483,50.1894575 L451.262785,44.220089 C450.99601,43.9627679 450.99601,43.5344993 451.262785,43.2777781 L457.451483,37.3084096 Z" id="Shape" stroke="#3B3B3B" fill="#3B3B3B" fill-rule="nonzero" transform="translate(460.855282, 43.748934) scale(-1, 1) translate(-460.855282, -43.748934) "></path>
            <text id="Titel" font-family="CircularStd-Book, Circular Std" font-size="25" font-weight="300" letter-spacing="0.400000006" fill="#000000">
                <tspan x="61" y="39">Hilf mir ein Baumhaus aufzu…</tspan>
            </text>
            <text id="Subtext" font-family="CircularStd-Book, Circular Std" font-size="17" font-weight="300" letter-spacing="0.271999985" fill="#979797">
                <tspan x="61" y="69">Heute 15:00 - 2 Std. - Breitenfurter Str…</tspan>
            </text>
            <g id="Icon/Development" transform="translate(14.013304, 29.013304)" fill-rule="nonzero" fill="#005C56">
                <path d="M28.8388219,0 L0.730097899,0 C0.338218715,0 0.0205053335,0.338957205 0.0205053335,0.757191127 L0.0205053335,19.6699814 C0.0205053335,20.0881538 0.338218715,20.4271726 0.730097899,20.4271726 L28.8388795,20.4271726 C29.2307587,20.4271726 29.5484721,20.0882153 29.5484721,19.6699814 L29.5484721,0.757191127 L29.5484721,0.757191127 C29.5484144,0.339080305 29.230701,0 28.8388219,0 Z" id="Shape"></path>
                <path d="M21.3028557,26.5500011 L19.7692211,26.5530104 L17.7243269,26.5530104 L17.7243269,22.5 L12.6121634,22.5 L12.6121634,26.5530104 L10.5672692,26.5530104 L9.03363461,26.5530104 C8.18665365,26.5530104 7.5,27.2509463 7.5,28.1118437 C7.5,28.9727411 8.18665365,29.6706769 9.03363461,29.6706769 L21.3028557,29.6706769 C22.1498367,29.6706769 22.8364903,28.9727411 22.8364903,28.1118437 C22.8364903,27.2510195 22.1498367,26.5500011 21.3028557,26.5500011 Z" id="Shape"></path>
            </g>
            <path d="M0.5,0.25 L377.501326,0.25" id="Line-Copy-2" stroke="#EBEBEB" stroke-linecap="square"></path>
        </g>
    </g>
</svg>