<?xml version="1.0" encoding="UTF-8"?>
<svg width="33px" height="41px" viewBox="0 0 33 41" version="1.1" xmlns="http://www.w3.org/2000/svg" xmlns:xlink="http://www.w3.org/1999/xlink">
    <!-- Generator: Sketch 45.1 (43504) - http://www.bohemiancoding.com/sketch -->
    <title>Branding/Logo(white)</title>
    <desc>Created with Sketch.</desc>
    <defs>
        <polygon id="path-1" points="31.9825953 8.49499996e-05 31.9825953 39.2270868 9.22160334e-05 39.2270868 9.22160334e-05 8.49499996e-05"></polygon>
    </defs>
    <g id="Symbols" stroke="none" stroke-width="1" fill="none" fill-rule="evenodd">
        <g id="Branding/Logo(white)">
            <g id="Page-1" transform="translate(0.468844, 0.781381)">
                <mask id="mask-2" fill="white">
                    <use xlink:href="#path-1"></use>
                </mask>
                <g id="Clip-2"></g>
                <path d="M30.2441847,27.9731343 C21.5385301,31.1020244 20.189179,33.9966856 16.8207578,38.7833894 C16.3910311,39.3943206 15.4760175,39.3687307 15.0695753,38.7418922 C11.0632497,32.566415 9.24820767,31.5792423 2.20589974,28.2029828 C1.00524698,27.6273242 9.22160334e-05,26.1041459 9.22160334e-05,24.7725464 C9.22160334e-05,23.0142171 0.402845742,20.528534 0.402845742,18.0391621 C0.402845742,15.6971054 9.22160334e-05,13.3527433 9.22160334e-05,11.5672104 C9.22160334e-05,9.66433252 1.0151602,7.91545545 2.66306072,6.96401652 C2.66306072,6.96401652 6.1299225,5.59530005 8.48834755,4.16871801 C10.9915518,2.65476128 12.1092101,1.63416033 13.3283061,0.806521428 C14.9026643,-0.262262399 17.0888759,-0.275172644 18.6544736,0.806521428 C19.7223353,1.54471078 20.7572297,2.66974638 22.9660343,3.94509413 C25.4217472,5.36291564 27.7285313,6.14813517 29.3194884,6.96401652 C31.0128053,7.83246102 31.9826875,9.66317982 31.9826875,11.5660577 C31.9826875,13.2589135 31.5229905,15.4859307 31.5229905,17.6956574 C31.5229905,20.4450784 31.9826875,23.1806671 31.9826875,24.9809546 C31.9826875,26.219877 31.4100259,27.554243 30.2441847,27.9731343" id="Fill-1" fill="#FFFFFF" mask="url(#mask-2)"></path>
            </g>
        </g>
    </g>
</svg>