<?xml version="1.0" encoding="UTF-8"?>
<svg width="234px" height="25px" viewBox="0 0 234 25" version="1.1" xmlns="http://www.w3.org/2000/svg" xmlns:xlink="http://www.w3.org/1999/xlink">
    <!-- Generator: Sketch 45.1 (43504) - http://www.bohemiancoding.com/sketch -->
    <title>Branding/Wordmark</title>
    <desc>Created with Sketch.</desc>
    <defs></defs>
    <g id="Symbols" stroke="none" stroke-width="1" fill="none" fill-rule="evenodd">
        <g id="Branding/Wordmark" fill="#111517">
            <path d="M12.3765,6.84701601 L12.3765,24.394016 L9.1515,24.394016 C8.4155,24.394016 7.8175,23.797016 7.8175,23.060016 L7.8175,5.43701601 L0.4725,5.43701601 L0.4725,2.78801601 C0.4615,1.87701601 1.1925,1.13001601 2.1035,1.11901601 L2.1225,1.11901601 L19.7265,1.11901601 L19.7265,4.07001601 C19.7265,4.82301601 19.1165,5.43201601 18.3635,5.43201601 L13.7905,5.43201601 C13.0095,5.43201601 12.3765,6.06601601 12.3765,6.84701601" id="Fill-54"></path>
            <path d="M30.8711,14.946116 L35.5001,14.946116 C35.8471,14.946116 36.1281,14.666116 36.1281,14.320116 C36.1281,14.246116 36.1151,14.172116 36.0901,14.102116 L33.7751,7.77111601 C33.6571,7.44611601 33.2971,7.27811601 32.9711,7.39611601 C32.7971,7.45911601 32.6601,7.59611601 32.5961,7.77111601 L30.2821,14.102116 C30.1621,14.427116 30.3281,14.788116 30.6531,14.907116 C30.7231,14.933116 30.7961,14.946116 30.8711,14.946116 M37.4711,19.081116 L28.9051,19.081116 C28.6411,19.081116 28.4051,19.247116 28.3151,19.495116 L26.6801,23.984116 C26.5901,24.232116 26.3541,24.398116 26.0901,24.399116 L21.7391,24.399116 L30.5081,1.54311601 C30.5961,1.28411601 30.8421,1.11311601 31.1161,1.11911601 L35.5001,1.11911601 C35.7621,1.11811601 35.9971,1.27911601 36.0901,1.52411601 L44.4391,23.540116 C44.5641,23.863116 44.4031,24.227116 44.0801,24.352116 C44.0051,24.381116 43.9251,24.395116 43.8451,24.394116 L40.2861,24.394116 C40.0211,24.393116 39.7861,24.228116 39.6961,23.979116 L38.0601,19.505116 C37.9741,19.253116 37.7381,19.082116 37.4711,19.081116" id="Fill-56"></path>
            <path d="M61.0664,6.83281601 C59.8784,6.83281601 60.1704,4.64981601 57.4744,4.64981601 C55.4654,4.64981601 54.1504,6.06381601 54.1504,7.60181601 C54.1504,8.87881601 54.8994,9.89681601 56.4554,10.227816 L59.4024,10.849816 C63.2684,11.669816 65.3334,14.422816 65.3334,17.704816 C65.3334,21.282816 62.6084,24.888816 57.6624,24.888816 C52.0574,24.883816 50.2844,20.918816 49.9734,17.619816 C49.9734,17.619816 53.0044,17.567816 53.9194,18.024816 C55.6594,18.892816 54.7394,21.117816 57.7334,21.117816 C59.9494,21.117816 61.1794,19.650816 61.1794,18.010816 C61.1794,16.666816 60.2364,15.615816 58.6004,15.257816 L55.6304,14.587816 C52.2454,13.833816 50.0584,11.438816 50.0584,7.93181601 C50.0764,3.89081601 53.3664,0.628816014 57.4074,0.646816014 C57.4204,0.646816014 57.4334,0.646816014 57.4454,0.647816014 C62.5984,0.647816014 64.2484,4.05581601 64.7294,6.68181601 C64.7294,6.68181601 63.0184,6.83281601 61.0664,6.83281601" id="Fill-58"></path>
            <path d="M78.293,19.061816 L78.293,23.026816 C78.293,23.784816 77.679,24.398816 76.921,24.398816 L75.389,24.398816 C74.631,24.398816 74.017,23.784816 74.017,23.026816 L74.017,23.021816 L74.017,2.53381601 C73.993,1.77581601 74.588,1.14281601 75.346,1.11981601 C75.36,1.11881601 75.375,1.11881601 75.389,1.11881601 L76.921,1.11881601 C77.679,1.11881601 78.293,1.73281601 78.293,2.48981601 L78.293,2.53381601 L78.293,9.40181601 C78.29,9.85481601 78.655,10.224816 79.108,10.227816 C79.355,10.228816 79.588,10.119816 79.745,9.92981601 L86.68,1.63281601 C86.944,1.32881601 87.328,1.15681601 87.731,1.16181601 L92.7,1.16181601 L85.595,9.41181601 C84.649,10.513816 84.553,12.111816 85.36,13.319816 L92.761,24.398816 L88.16,24.398816 C87.699,24.399816 87.269,24.168816 87.014,23.785816 L81.018,14.752816 L78.929,17.284816 C78.518,17.785816 78.293,18.413816 78.293,19.061816" id="Fill-60"></path>
            <path d="M184.668,19.061816 L184.668,23.026816 C184.668,23.784816 184.054,24.398816 183.296,24.398816 L181.764,24.398816 C181.006,24.398816 180.392,23.784816 180.392,23.026816 L180.392,2.53381601 C180.369,1.77581601 180.963,1.14281601 181.721,1.11981601 C181.737,1.11881601 181.753,1.11881601 181.769,1.11881601 L183.301,1.11881601 C184.059,1.12181601 184.671,1.73681601 184.668,2.49481601 L184.668,2.53381601 L184.668,9.40181601 C184.666,9.85481601 185.03,10.224816 185.483,10.227816 C185.73,10.228816 185.963,10.119816 186.12,9.92981601 L193.055,1.63281601 C193.319,1.32881601 193.704,1.15681601 194.106,1.16181601 L199.075,1.16181601 L191.975,9.41181601 C191.029,10.513816 190.933,12.111816 191.74,13.319816 L199.141,24.398816 L194.516,24.398816 C194.056,24.399816 193.626,24.168816 193.371,23.785816 L187.397,14.752816 L185.309,17.284816 C184.896,17.784816 184.669,18.412816 184.668,19.061816" id="Fill-62"></path>
            <path d="M108.4316,11.537916 C110.7276,11.537916 111.2086,10.226916 111.2086,8.32291601 C111.2086,6.41791601 110.7376,5.07491601 108.4316,5.07491601 L104.7596,5.07491601 L104.7596,11.537916 L108.4316,11.537916 Z M104.7646,16.916916 L104.7646,21.390916 C104.7646,23.036916 103.4306,24.370916 101.7846,24.370916 L100.2046,24.370916 L100.2046,3.10391601 C100.1946,2.01791601 101.0666,1.12991601 102.1526,1.11891601 L102.1706,1.11891601 L109.2896,1.11891601 C113.8156,1.11891601 115.8376,4.23491601 115.8376,8.27091601 C115.8376,11.518916 114.8006,13.979916 111.7506,14.870916 L116.7336,24.384916 L114.6176,24.384916 C112.8916,24.379916 111.3246,23.378916 110.5956,21.814916 C109.6526,19.801916 108.4696,17.100916 106.4326,16.006916 C105.9186,15.688916 105.2446,15.847916 104.9276,16.361916 C104.8246,16.528916 104.7676,16.720916 104.7646,16.916916 L104.7646,16.916916 Z" id="Fill-64"></path>
            <path d="M133.8613,20.490516 C137.3073,20.490516 140.8193,17.996516 140.8193,12.749516 C140.8193,7.50251601 137.3123,5.00851601 133.8613,5.00851601 C130.4103,5.00851601 126.9353,7.50251601 126.9353,12.749516 C126.9353,17.996516 130.4473,20.490516 133.8613,20.490516 M133.8613,0.647516014 C139.9093,0.647516014 145.2983,5.27251601 145.2983,12.782516 C145.2983,20.292516 139.9093,24.884516 133.8613,24.884516 C127.8123,24.884516 122.4523,20.259516 122.4523,12.782516 C122.4523,5.30551601 127.8453,0.647516014 133.8613,0.647516014" id="Fill-66"></path>
            <path d="M162.3032,20.490516 C165.7492,20.490516 169.2612,17.996516 169.2612,12.749516 C169.2612,7.50251601 165.7492,5.00851601 162.3032,5.00851601 C158.8572,5.00851601 155.3772,7.50251601 155.3772,12.749516 C155.3772,17.996516 158.8752,20.490516 162.3032,20.490516 M162.3032,0.647516014 C168.3512,0.647516014 173.7402,5.27251601 173.7402,12.782516 C173.7402,20.292516 168.3512,24.884516 162.3032,24.884516 C156.2542,24.884516 150.8942,20.259516 150.8942,12.782516 C150.8942,5.30551601 156.2872,0.647516014 162.3032,0.647516014" id="Fill-68"></path>
            <path d="M206.689,24.393916 L206.689,2.40591601 C206.678,1.70591601 207.238,1.12991601 207.938,1.11891601 L207.952,1.11891601 L211.276,1.11891601 L211.276,23.129916 C211.276,23.830916 210.708,24.398916 210.008,24.398916 L206.689,24.393916 Z" id="Fill-70"></path>
            <path d="M220.0117,23.144416 L220.0117,2.50041601 C219.9697,1.78041601 220.5187,1.16241601 221.2387,1.12041601 C221.2447,1.11941601 221.2507,1.11941601 221.2567,1.11941601 L233.3207,1.11941601 L232.8917,2.71241601 C232.5207,4.24841601 231.1707,5.34841601 229.5917,5.39941601 L225.4327,5.39941601 C224.6987,5.42541601 224.1227,6.04041601 224.1457,6.77641601 L224.1457,10.703416 L231.8677,10.703416 L231.6087,12.032416 C231.3747,13.550416 230.0937,14.686416 228.5587,14.738416 L225.2587,14.738416 C224.6017,14.769416 224.0937,15.326416 224.1227,15.983416 L224.1227,20.118416 L232.7637,20.118416 L232.5237,21.532416 C232.3197,23.106416 231.0077,24.302416 229.4217,24.360416 L221.1527,24.360416 C220.5057,24.330416 220.0007,23.791416 220.0117,23.144416" id="Fill-72"></path>
        </g>
    </g>
</svg>