<?xml version="1.0" encoding="UTF-8"?>
<svg width="20px" height="20px" viewBox="0 0 20 20" version="1.1" xmlns="http://www.w3.org/2000/svg" xmlns:xlink="http://www.w3.org/1999/xlink">
    <!-- Generator: Sketch 45.1 (43504) - http://www.bohemiancoding.com/sketch -->
    <title>Close</title>
    <desc>Created with Sketch.</desc>
    <defs></defs>
    <g id="Symbols" stroke="none" stroke-width="1" fill="none" fill-rule="evenodd">
        <g id="Close" fill-rule="nonzero" fill="#FFFFFF">
            <g id="Group-2">
                <path d="M9.66425939,7.63524691 L2.95893344,1.31203178 C2.27431076,0.666423123 1.17319002,0.674925389 0.499511421,1.33102212 C-0.174167176,1.98711885 -0.165295247,3.04235957 0.51932743,3.68796822 L7.24115598,10.0267455 L0.624529466,16.5570708 C-0.0445772394,17.2174502 -0.0283762538,18.272611 0.66071538,18.9138383 C1.34980701,19.5550655 2.45084431,19.5395396 3.11995102,18.8791601 L9.72044894,12.3647531 L16.4257749,18.6879682 C17.1103976,19.3335769 18.2115183,19.3250746 18.8851969,18.6689779 C19.5588755,18.0128811 19.5500036,16.9576404 18.8653809,16.3120318 L12.1435523,9.97325446 L18.7601789,3.44292923 C19.4292856,2.78254975 19.4130846,1.72738901 18.7239929,1.08616175 C18.0349013,0.44493449 16.933864,0.460460434 16.2647573,1.12083992 L9.66425939,7.63524691 Z" id="Combined-Shape"></path>
            </g>
        </g>
    </g>
</svg>