<?xml version="1.0" encoding="UTF-8"?>
<svg width="1372px" height="34px" viewBox="0 0 1372 34" version="1.1" xmlns="http://www.w3.org/2000/svg" xmlns:xlink="http://www.w3.org/1999/xlink">
    <!-- Generator: Sketch 45.1 (43504) - http://www.bohemiancoding.com/sketch -->
    <title>Header</title>
    <desc>Created with Sketch.</desc>
    <defs>
        <polygon id="path-1" points="26.1675779 6.837439e-05 26.1675779 31.5730211 7.54494819e-05 31.5730211 7.54494819e-05 6.837439e-05"></polygon>
    </defs>
    <g id="Symbols" stroke="none" stroke-width="1" fill="none" fill-rule="evenodd">
        <g id="Header">
            <g id="Group-3" transform="translate(2.000000, 0.000000)">
                <text id="7-new-Pre-Launch-Tas" font-family="CircularStd-Bold, Circular Std" font-size="18" font-weight="bold" fill="#F5A623">
                    <tspan x="983" y="19">7 new Pre-Launch Tasks available!</tspan>
                </text>
                <g id="Group-2">
                    <g id="Branding/Wordmark" transform="translate(50.807647, 4.763217)" fill="#111517">
                        <path d="M11.1071154,6.02537409 L11.1071154,21.4667341 L8.21288462,21.4667341 C7.55237179,21.4667341 7.01570513,20.9413741 7.01570513,20.2928141 L7.01570513,4.78457409 L0.424038462,4.78457409 L0.424038462,2.45345409 C0.414166667,1.65177409 1.07019231,0.994414093 1.88775641,0.984734093 L1.90480769,0.984734093 L17.7032692,0.984734093 L17.7032692,3.58161409 C17.7032692,4.24425409 17.1558333,4.78017409 16.4800641,4.78017409 L12.3760897,4.78017409 C11.6751923,4.78017409 11.1071154,5.33809409 11.1071154,6.02537409" id="Fill-54"></path>
                        <path d="M27.7048333,13.1525821 L31.8590641,13.1525821 C32.1704744,13.1525821 32.4226538,12.9061821 32.4226538,12.6017021 C32.4226538,12.5365821 32.4109872,12.4714621 32.3885513,12.4098621 L30.3109872,6.83858209 C30.2050897,6.55258209 29.8820128,6.40474209 29.5894487,6.50858209 C29.4332949,6.56402209 29.3103462,6.68458209 29.2529103,6.83858209 L27.1762436,12.4098621 C27.0685513,12.6958621 27.2175256,13.0135421 27.5091923,13.1182621 C27.5720128,13.1411421 27.6375256,13.1525821 27.7048333,13.1525821 M33.6279103,16.7913821 L25.9404744,16.7913821 C25.7035513,16.7913821 25.4917564,16.9374621 25.4109872,17.1557021 L23.9436795,21.1060221 C23.8629103,21.3242621 23.6511154,21.4703421 23.4141923,21.4712221 L19.5094487,21.4712221 L27.3790641,1.35794209 C27.4580385,1.13002209 27.6788077,0.979542093 27.9247051,0.984822093 L31.8590641,0.984822093 C32.0941923,0.983942093 32.3050897,1.12562209 32.3885513,1.34122209 L39.8812436,20.7153021 C39.9934231,20.9995421 39.8489359,21.3198621 39.5590641,21.4298621 C39.4917564,21.4553821 39.4199615,21.4677021 39.3481667,21.4668221 L36.1541923,21.4668221 C35.9163718,21.4659421 35.7054744,21.3207421 35.6247051,21.1016221 L34.1565,17.1645021 C34.0793205,16.9427421 33.8675256,16.7922621 33.6279103,16.7913821" id="Fill-56"></path>
                        <path d="M54.8031795,6.01287809 C53.7370256,6.01287809 53.9990769,4.09183809 51.5795897,4.09183809 C49.776641,4.09183809 48.5965128,5.33615809 48.5965128,6.68959809 C48.5965128,7.81335809 49.2686923,8.70919809 50.6651026,9.00047809 L53.3098462,9.54783809 C56.7793333,10.2694381 58.6325385,12.6920781 58.6325385,15.5802381 C58.6325385,18.7288781 56.1870256,21.9021581 51.7483077,21.9021581 C46.7181795,21.8977581 45.1270256,18.4085581 44.8479231,15.5054381 C44.8479231,15.5054381 47.5680513,15.4596781 48.3892051,15.8618381 C49.9507436,16.6256781 49.1251026,18.5836781 51.8120256,18.5836781 C53.8007436,18.5836781 54.9045897,17.2927181 54.9045897,15.8495181 C54.9045897,14.6667981 54.0583077,13.7419181 52.5901026,13.4268781 L49.9247179,12.8372781 C46.8868974,12.1737581 44.9242051,10.0661581 44.9242051,6.97999809 C44.940359,3.42391809 47.8929231,0.553358093 51.5194615,0.569198093 C51.5311282,0.569198093 51.5427949,0.569198093 51.5535641,0.570078093 C56.1780513,0.570078093 57.6588205,3.56911809 58.0904872,5.87999809 C58.0904872,5.87999809 56.5549744,6.01287809 54.8031795,6.01287809" id="Fill-58"></path>
                        <path d="M70.2629487,16.7743981 L70.2629487,20.2635981 C70.2629487,20.9306381 69.7119231,21.4709581 69.0316667,21.4709581 L67.6567949,21.4709581 C66.9765385,21.4709581 66.4255128,20.9306381 66.4255128,20.2635981 L66.4255128,20.2591981 L66.4255128,2.22975809 C66.4039744,1.56271809 66.9379487,1.00567809 67.6182051,0.985438093 C67.6307692,0.984558093 67.6442308,0.984558093 67.6567949,0.984558093 L69.0316667,0.984558093 C69.7119231,0.984558093 70.2629487,1.52487809 70.2629487,2.19103809 L70.2629487,2.22975809 L70.2629487,8.27359809 C70.2602564,8.67223809 70.5878205,8.99783809 70.994359,9.00047809 C71.2160256,9.00135809 71.4251282,8.90543809 71.5660256,8.73823809 L77.7897436,1.43687809 C78.0266667,1.16935809 78.3712821,1.01799809 78.7329487,1.02239809 L83.1923077,1.02239809 L76.8160256,8.28239809 C75.9670513,9.25215809 75.8808974,10.6583981 76.6051282,11.7214381 L83.2470513,21.4709581 L79.1179487,21.4709581 C78.7042308,21.4718381 78.3183333,21.2685581 78.0894872,20.9315181 L72.7084615,12.9824781 L70.8337179,15.2106381 C70.4648718,15.6515181 70.2629487,16.2041581 70.2629487,16.7743981" id="Fill-60"></path>
                        <path d="M165.727692,16.7743981 L165.727692,20.2635981 C165.727692,20.9306381 165.176667,21.4709581 164.49641,21.4709581 L163.121538,21.4709581 C162.441282,21.4709581 161.890256,20.9306381 161.890256,20.2635981 L161.890256,2.22975809 C161.869615,1.56271809 162.402692,1.00567809 163.082949,0.985438093 C163.097308,0.984558093 163.111667,0.984558093 163.126026,0.984558093 L164.500897,0.984558093 C165.181154,0.987198093 165.730385,1.52839809 165.727692,2.19543809 L165.727692,2.22975809 L165.727692,8.27359809 C165.725897,8.67223809 166.052564,8.99783809 166.459103,9.00047809 C166.680769,9.00135809 166.889872,8.90543809 167.030769,8.73823809 L173.254487,1.43687809 C173.49141,1.16935809 173.836923,1.01799809 174.197692,1.02239809 L178.657051,1.02239809 L172.285256,8.28239809 C171.436282,9.25215809 171.350128,10.6583981 172.074359,11.7214381 L178.716282,21.4709581 L174.565641,21.4709581 C174.152821,21.4718381 173.766923,21.2685581 173.538077,20.9315181 L168.176795,12.9824781 L166.302949,15.2106381 C165.932308,15.6506381 165.72859,16.2032781 165.727692,16.7743981" id="Fill-62"></path>
                        <path d="M97.3104103,10.1533661 C99.3709231,10.1533661 99.8025897,8.99968609 99.8025897,7.32416609 C99.8025897,5.64776609 99.3798974,4.46592609 97.3104103,4.46592609 L94.0150256,4.46592609 L94.0150256,10.1533661 L97.3104103,10.1533661 Z M94.0195128,14.8868861 L94.0195128,18.8240061 C94.0195128,20.2724861 92.8223333,21.4464061 91.3451538,21.4464061 L89.9272051,21.4464061 L89.9272051,2.73144609 C89.9182308,1.77576609 90.7007949,0.994326093 91.6754103,0.984646093 L91.6915641,0.984646093 L98.0804103,0.984646093 C102.142205,0.984646093 103.956821,3.72672609 103.956821,7.27840609 C103.956821,10.1366461 103.026179,12.3023261 100.289,13.0864061 L104.760923,21.4587261 L102.861949,21.4587261 C101.312974,21.4543261 99.9066923,20.5734461 99.2524615,19.1971261 C98.4061795,17.4256861 97.3445128,15.0488061 95.5164359,14.0860861 C95.0551538,13.8062461 94.4502821,13.9461661 94.1657949,14.3984861 C94.073359,14.5454461 94.0222051,14.7144061 94.0195128,14.8868861 L94.0195128,14.8868861 Z" id="Fill-64"></path>
                        <path d="M120.131936,18.0316541 C123.2245,18.0316541 126.376295,15.8369341 126.376295,11.2195741 C126.376295,6.60221409 123.228987,4.40749409 120.131936,4.40749409 C117.034885,4.40749409 113.916295,6.60221409 113.916295,11.2195741 C113.916295,15.8369341 117.06809,18.0316541 120.131936,18.0316541 M120.131936,0.569814093 C125.559628,0.569814093 130.39591,4.63981409 130.39591,11.2486141 C130.39591,17.8574141 125.559628,21.8983741 120.131936,21.8983741 C114.703346,21.8983741 109.89309,17.8283741 109.89309,11.2486141 C109.89309,4.66885409 114.732962,0.569814093 120.131936,0.569814093" id="Fill-66"></path>
                        <path d="M145.656718,18.0316541 C148.749282,18.0316541 151.901077,15.8369341 151.901077,11.2195741 C151.901077,6.60221409 148.749282,4.40749409 145.656718,4.40749409 C142.564154,4.40749409 139.441077,6.60221409 139.441077,11.2195741 C139.441077,15.8369341 142.580308,18.0316541 145.656718,18.0316541 M145.656718,0.569814093 C151.08441,0.569814093 155.920692,4.63981409 155.920692,11.2486141 C155.920692,17.8574141 151.08441,21.8983741 145.656718,21.8983741 C140.228128,21.8983741 135.417872,17.8283741 135.417872,11.2486141 C135.417872,4.66885409 140.257744,0.569814093 145.656718,0.569814093" id="Fill-68"></path>
                        <path d="M185.490128,21.4666461 L185.490128,2.11720609 C185.480256,1.50120609 185.982821,0.994326093 186.611026,0.984646093 L186.62359,0.984646093 L189.606667,0.984646093 L189.606667,20.3543261 C189.606667,20.9712061 189.096923,21.4710461 188.468718,21.4710461 L185.490128,21.4666461 Z" id="Fill-70"></path>
                        <path d="M197.446397,20.3670861 L197.446397,2.20036609 C197.408705,1.56676609 197.901397,1.02292609 198.547551,0.985966093 C198.552936,0.985086093 198.558321,0.985086093 198.563705,0.985086093 L209.390372,0.985086093 L209.005372,2.38692609 C208.672423,3.73860609 207.460885,4.70660609 206.043833,4.75148609 L202.311397,4.75148609 C201.652679,4.77436609 201.135756,5.31556609 201.156397,5.96324609 L201.156397,9.41900609 L208.086397,9.41900609 L207.853962,10.5885261 C207.643962,11.9243661 206.494346,12.9240461 205.116782,12.9698061 L202.155244,12.9698061 C201.565628,12.9970861 201.109731,13.4872461 201.135756,14.0654061 L201.135756,17.7042061 L208.8905,17.7042061 L208.675115,18.9485261 C208.492038,20.3336461 207.314603,21.3861261 205.891269,21.4371661 L198.470372,21.4371661 C197.889731,21.4107661 197.436526,20.9364461 197.446397,20.3670861" id="Fill-72"></path>
                    </g>
                    <g id="Branding/Logo">
                        <g id="Page-1" transform="translate(0.383599, 0.628916)">
                            <mask id="mask-2" fill="white">
                                <use xlink:href="#path-1"></use>
                            </mask>
                            <g id="Clip-2"></g>
                            <path d="M24.745242,22.5149618 C17.6224337,25.0333367 16.5184191,27.363186 13.7624382,31.2158988 C13.4108436,31.7076239 12.6621961,31.6870271 12.3296525,31.1824986 C9.05174979,26.2119925 7.56671537,25.4174389 1.80482706,22.6999618 C0.822474802,22.2366268 7.54494819e-05,21.010654 7.54494819e-05,19.9388788 C7.54494819e-05,18.5236382 0.329601062,16.5229664 0.329601062,14.5193256 C0.329601062,12.6342556 7.54494819e-05,10.74733 7.54494819e-05,9.31019371 C7.54494819e-05,7.7786091 0.830585622,6.37097633 2.17886786,5.60518403 C2.17886786,5.60518403 5.01539114,4.50353418 6.94501164,3.35530962 C8.99308782,2.13675908 9.90753554,1.31529978 10.9049777,0.649151394 C12.193089,-0.211089248 13.9818076,-0.221480421 15.2627511,0.649151394 C16.1364561,1.2433038 16.983188,2.14882026 18.7903917,3.17531966 C20.7996114,4.31649308 22.6869802,4.94849904 23.9886724,5.60518403 C25.3741135,6.30417594 26.1676534,7.77768132 26.1676534,9.30926593 C26.1676534,10.6718084 25.7915377,12.4642857 25.7915377,14.2428462 C25.7915377,16.4557948 26.1676534,18.6576101 26.1676534,20.106622 C26.1676534,21.1038034 25.6991121,22.1778053 24.745242,22.5149618" id="Fill-1" fill="#121919" mask="url(#mask-2)"></path>
                        </g>
                    </g>
                </g>
                <g id="Menu-Hamburger" transform="translate(1336.000000, 5.000000)" fill="#000000">
                    <g id="Group">
                        <path d="M1.79310345,4 L24.2068966,4 C25.1972002,4 26,3.1045695 26,2 C26,0.8954305 25.1972002,0 24.2068966,0 L1.79310345,0 C0.802799759,0 0,0.8954305 0,2 C0,3.1045695 0.802799759,4 1.79310345,4 Z" id="Line-2" fill-rule="nonzero"></path>
                        <path d="M1.79310345,13 L24.2068966,13 C25.1972002,13 26,12.1045695 26,11 C26,9.8954305 25.1972002,9 24.2068966,9 L1.79310345,9 C0.802799759,9 0,9.8954305 0,11 C0,12.1045695 0.802799759,13 1.79310345,13 Z" id="Line-2-Copy" fill-rule="nonzero"></path>
                        <path d="M1.79310345,22 L24.2068966,22 C25.1972002,22 26,21.1045695 26,20 C26,18.8954305 25.1972002,18 24.2068966,18 L1.79310345,18 C0.802799759,18 0,18.8954305 0,20 C0,21.1045695 0.802799759,22 1.79310345,22 Z" id="Line-2-Copy-2" fill-rule="nonzero"></path>
                    </g>
                </g>
                <path d="M979.5,31 L1273.51531,31" id="Line-3" stroke="#979797" stroke-width="2" stroke-linecap="square"></path>
            </g>
        </g>
    </g>
</svg>