<?xml version="1.0" encoding="UTF-8"?>
<svg width="18px" height="18px" viewBox="0 0 18 18" version="1.1" xmlns="http://www.w3.org/2000/svg" xmlns:xlink="http://www.w3.org/1999/xlink">
    <!-- Generator: Sketch 45.1 (43504) - http://www.bohemiancoding.com/sketch -->
    <title>Instagram</title>
    <desc>Created with Sketch.</desc>
    <defs>
        <polygon id="path-1" points="0 17.9884584 17.9863504 17.9884584 17.9863504 0 0 0"></polygon>
    </defs>
    <g id="Symbols" stroke="none" stroke-width="1" fill="none" fill-rule="evenodd">
        <g id="Instagram">
            <g id="Insta">
                <mask id="mask-2" fill="white">
                    <use xlink:href="#path-1"></use>
                </mask>
                <g id="Clip-2"></g>
                <path d="M4.86043228,1.45330583 C2.98172752,1.45330583 1.45330583,2.98172752 1.45330583,4.86043228 L1.45330583,13.1280262 C1.45330583,15.0067309 2.98172752,16.5351877 4.86043228,16.5351877 L13.1280262,16.5351877 C15.0067309,16.5351877 16.5351877,15.0067309 16.5351877,13.1280262 L16.5351877,4.86043228 C16.5351877,2.98172752 15.0067309,1.45330583 13.1280262,1.45330583 L4.86043228,1.45330583 Z M13.1280262,17.9884584 L4.86043228,17.9884584 C2.18039791,17.9884584 0,15.8080605 0,13.1280262 L0,4.86043228 C0,2.18039791 2.18039791,0 4.86043228,0 L13.1280262,0 C15.8080605,0 17.9884584,2.18039791 17.9884584,4.86043228 L17.9884584,13.1280262 C17.9884584,15.8080605 15.8080605,17.9884584 13.1280262,17.9884584 L13.1280262,17.9884584 Z" id="Fill-1" fill="#000000" mask="url(#mask-2)"></path>
                <path d="M9.03452487,6.45333218 C8.90804352,6.45333218 8.7815973,6.46260748 8.65602943,6.48126347 C7.97422469,6.58237829 7.37263021,6.9429204 6.96198744,7.49652223 C6.55134466,8.05012407 6.38094618,8.73045319 6.48206099,9.41225792 C6.58314067,10.0940275 6.94368278,10.6956571 7.49728461,11.1062648 C8.05088645,11.5169076 8.73121556,11.6874466 9.4130203,11.5861912 C10.8204766,11.377497 11.795683,10.0626531 11.5869887,8.65523192 C11.4190496,7.52283738 10.5454148,6.6492026 9.4130203,6.48129861 C9.28745243,6.46260748 9.16097108,6.45333218 9.03452487,6.45333218 Z M9.02598737,13.0682013 C8.16707362,13.0682013 7.33401827,12.7945448 6.63151978,12.273512 C5.76614142,11.6316542 5.20252648,10.6911952 5.04445993,9.62541413 C4.88639338,8.5596331 5.15288255,7.49610063 5.79474026,6.63072227 C6.43659797,5.76534391 7.37705706,5.20172897 8.44287322,5.04366242 C8.83545728,4.98544586 9.23359245,4.98544586 9.62621164,5.04366242 C10.4886036,5.17151398 11.2702935,5.56501151 11.8867495,6.18146755 C12.5032407,6.79795872 12.8967031,7.57961345 13.0245898,8.44204058 C13.1826564,9.50782161 12.9161672,10.5713541 12.2743095,11.4366973 C11.6324518,12.3020757 10.6919927,12.8656906 9.62617651,13.0237572 C9.4256333,13.0535154 9.2250901,13.0682013 9.02598737,13.0682013 L9.02598737,13.0682013 Z" id="Fill-4" fill="#000000" mask="url(#mask-2)"></path>
                <path d="M12.7266353,5.45327069 C12.5354377,5.45327069 12.3481399,5.37576573 12.2128049,5.24046582 C12.0775401,5.10513078 12,4.91814919 12,4.72663535 C12,4.5351215 12.077505,4.34813991 12.2128049,4.21284 C12.3481399,4.07750496 12.5354377,4 12.7266353,4 C12.917833,4 13.1051308,4.07750496 13.2404307,4.21284 C13.3757306,4.34813991 13.4532707,4.53543771 13.4532707,4.72663535 C13.4532707,4.91783298 13.3757657,5.10513078 13.2404307,5.24046582 C13.1051308,5.37576573 12.917833,5.45327069 12.7266353,5.45327069" id="Fill-5" fill="#000000" mask="url(#mask-2)"></path>
            </g>
        </g>
    </g>
</svg>