<?xml version="1.0" encoding="UTF-8"?>
<svg width="18px" height="18px" viewBox="0 0 18 18" version="1.1" xmlns="http://www.w3.org/2000/svg" xmlns:xlink="http://www.w3.org/1999/xlink">
    <!-- Generator: Sketch 45.1 (43504) - http://www.bohemiancoding.com/sketch -->
    <title>LinkedIn</title>
    <desc>Created with Sketch.</desc>
    <defs></defs>
    <g id="Symbols" stroke="none" stroke-width="1" fill="none" fill-rule="evenodd">
        <g id="LinkedIn" fill="#000000">
            <g id="Linked">
                <polygon id="Fill-1" points="0 18.0001068 4.00112485 18.0001068 4.00112485 6 0 6"></polygon>
                <path d="M16.3124527,7.34352208 C15.5187414,6.44759858 14.4693566,6 13.1646497,6 C12.6845597,6 12.2476673,6.06101141 11.8544992,6.18303423 C11.4615067,6.30578337 11.1294474,6.47737796 10.8584968,6.69799958 C10.5875462,6.91934752 10.3722608,7.12435312 10.2117625,7.3137427 C10.0595175,7.4931453 9.91060878,7.70232727 9.7659145,7.93929123 L9.7659145,6.27164604 L6,6.27164604 L6.01176519,6.83981479 C6.01931598,7.21859395 6.02265238,8.38616348 6.02265238,10.3430681 C6.02265238,12.2999728 6.01510159,14.8521018 6,18 L9.7659145,18 L9.7659145,11.4552553 C9.7659145,11.0530521 9.80770726,10.7338317 9.89146839,10.4970493 C10.0519667,10.0941198 10.2939433,9.75728596 10.6184518,9.4849136 C10.9429603,9.21254123 11.3449084,9.07635505 11.8257008,9.07635505 C12.4820931,9.07635505 12.9644659,9.31114003 13.2736972,9.7805284 C13.5824018,10.2500984 13.7374564,10.8992525 13.7374564,11.7276276 L13.7374564,18 L17.5024929,18 L17.5024929,11.2780317 C17.5024929,9.55010138 17.1059885,8.23853766 16.3124527,7.34352208 Z" id="Fill-2"></path>
                <path d="M2.01092822,0 C1.41237647,0 0.927763503,0.18933106 0.556425912,0.567275338 C0.185254171,0.945757997 0,1.42312351 0,2.00008973 C0,2.56933914 0.180112829,3.04526897 0.540338487,3.42734084 C0.900564144,3.80941271 1.37671878,4 1.96747559,4 L1.98887021,4 C2.59471934,4 3.08248346,3.80941271 3.4536552,3.42734084 C3.82482694,3.04526897 4.00692997,2.56933914 3.99979843,2.00008973 C3.99266689,1.42312351 3.80873952,0.945757997 3.44851386,0.567275338 C3.0882882,0.18933106 2.60881657,0 2.01092822,0 Z" id="Fill-3"></path>
            </g>
        </g>
    </g>
</svg>