<?xml version="1.0" encoding="UTF-8"?>
<svg width="26px" height="22px" viewBox="0 0 26 22" version="1.1" xmlns="http://www.w3.org/2000/svg" xmlns:xlink="http://www.w3.org/1999/xlink">
    <!-- Generator: Sketch 45.1 (43504) - http://www.bohemiancoding.com/sketch -->
    <title>Menu Hamburger</title>
    <desc>Created with Sketch.</desc>
    <defs></defs>
    <g id="Symbols" stroke="none" stroke-width="1" fill="none" fill-rule="evenodd">
        <g id="Menu-Hamburger" fill-rule="nonzero" fill="#000000">
            <g id="Group">
                <path d="M1.79310345,4 L24.2068966,4 C25.1972002,4 26,3.1045695 26,2 C26,0.8954305 25.1972002,0 24.2068966,0 L1.79310345,0 C0.802799759,0 0,0.8954305 0,2 C0,3.1045695 0.802799759,4 1.79310345,4 Z" id="Line-2"></path>
                <path d="M1.79310345,13 L24.2068966,13 C25.1972002,13 26,12.1045695 26,11 C26,9.8954305 25.1972002,9 24.2068966,9 L1.79310345,9 C0.802799759,9 0,9.8954305 0,11 C0,12.1045695 0.802799759,13 1.79310345,13 Z" id="Line-2-Copy"></path>
                <path d="M1.79310345,22 L24.2068966,22 C25.1972002,22 26,21.1045695 26,20 C26,18.8954305 25.1972002,18 24.2068966,18 L1.79310345,18 C0.802799759,18 0,18.8954305 0,20 C0,21.1045695 0.802799759,22 1.79310345,22 Z" id="Line-2-Copy-2"></path>
            </g>
        </g>
    </g>
</svg>