<?xml version="1.0" encoding="UTF-8"?>
<svg width="20px" height="20px" viewBox="0 0 20 20" version="1.1" xmlns="http://www.w3.org/2000/svg" xmlns:xlink="http://www.w3.org/1999/xlink">
    <!-- Generator: Sketch 45.1 (43504) - http://www.bohemiancoding.com/sketch -->
    <title>Icon/Creative</title>
    <desc>Created with Sketch.</desc>
    <defs></defs>
    <g id="Symbols" stroke="none" stroke-width="1" fill="none" fill-rule="evenodd">
        <g id="Icon/Creative" fill-rule="nonzero" fill="#005C56">
            <path d="M12.2222222,17.2791833 L12.2222222,17.9094541 C12.2222222,18.4110075 11.8895902,18.828229 11.4567679,18.8992455 L11.3165014,19.4718154 C11.2403567,19.7825122 10.987877,20 10.6953211,20 L9.30467889,20 C9.01212303,20 8.75964332,19.7825122 8.68349865,19.4718154 L8.54723976,18.8992455 C8.11040978,18.8237905 7.77777778,18.4110075 7.77777778,17.9050155 L7.77777778,17.2747448 C7.77777778,16.9374168 8.02224226,16.6666667 8.32682096,16.6666667 L11.673179,16.6666667 C11.9777577,16.6711052 12.2222222,16.9418553 12.2222222,17.2791833 Z M14.4444444,9.20984014 C14.4444444,10.4957034 13.9097897,11.6621367 13.0409759,12.5180519 C12.3810115,13.170936 11.9549585,14.0029652 11.8129408,14.8907284 C11.750286,15.2729045 11.4035958,15.5555556 10.9942508,15.5555556 L7.89074738,15.5555556 C7.48557937,15.5555556 7.13471222,15.2768855 7.07623437,14.8947094 C6.93003972,14.0069462 6.49980977,13.162974 5.83984537,12.5140709 C4.98773944,11.6700987 4.45726173,10.5235704 4.44473077,9.26159315 C4.41549184,6.61024656 6.62929645,4.46448708 9.41117169,4.44458207 C12.1888699,4.42467707 14.4444444,6.56645555 14.4444444,9.20984014 Z M11.1111111,6.15615616 C11.1111111,5.82693805 10.8441775,5.55555556 10.5105105,5.55555556 C8.39283728,5.55555556 6.66666667,7.27727728 6.66666667,9.3993994 C6.66666667,9.72861751 6.93360027,10 7.26726727,10 C7.59648537,10 7.86786787,9.7330664 7.86786787,9.3993994 C7.86786787,7.94016238 9.05572239,6.75675676 10.5105105,6.75675676 C10.8441775,6.75675676 11.1111111,6.48982316 11.1111111,6.15615616 Z M9.44444444,3.33333333 C9.74897119,3.33333333 10,3.06415433 10,2.72768057 L10,0.605652759 C10,0.273665321 9.75308642,0 9.44444444,0 C9.13580247,0 8.88888889,0.269179004 8.88888889,0.605652759 L8.88888889,2.72768057 C8.88888889,3.06415433 9.1399177,3.33333333 9.44444444,3.33333333 Z M3.33333333,9.44444444 C3.33333333,9.1399177 3.06415433,8.88888889 2.72768057,8.88888889 L0.605652759,8.88888889 C0.273665321,8.88888889 0,9.13580247 0,9.44444444 C0,9.74897119 0.269179004,10 0.605652759,10 L2.72768057,10 C3.06415433,10 3.33333333,9.75308642 3.33333333,9.44444444 Z M19.3943472,8.88888889 L17.2723194,8.88888889 C16.940332,8.88888889 16.6666667,9.13580247 16.6666667,9.44444444 C16.6666667,9.74897119 16.9358457,10 17.2723194,10 L19.3943472,10 C19.7263347,10 20,9.75308642 20,9.44444444 C20,9.1399177 19.730821,8.88888889 19.3943472,8.88888889 Z M3.59985295,14.5905103 L2.3683485,15.8215057 C2.17351346,16.0162602 2.17351346,16.3286023 2.3683485,16.5233568 C2.46392795,16.6188967 2.59259259,16.6666667 2.7175811,16.6666667 C2.84256962,16.6666667 2.97123426,16.6188967 3.06681371,16.5233568 L4.29831817,15.2923614 C4.4931532,15.0976069 4.4931532,14.7852648 4.29831817,14.5905103 C4.10715927,14.3957558 3.79101186,14.3957558 3.59985295,14.5905103 Z M14.9426553,4.44444444 C15.0674374,4.44444444 15.1958895,4.39667448 15.2913111,4.30113454 L16.5207817,3.07013918 C16.715295,2.87538469 16.715295,2.56304258 16.5207817,2.36828809 C16.3262685,2.1735336 16.0143132,2.1735336 15.8198,2.36828809 L14.5903294,3.59928345 C14.3958161,3.79403794 14.3958161,4.10638005 14.5903294,4.30113454 C14.689421,4.39667448 14.8142031,4.44444444 14.9426553,4.44444444 Z M3.60124782,4.30113454 C3.69666942,4.39667448 3.82512157,4.44444444 3.94990366,4.44444444 C4.07468575,4.44444444 4.2031379,4.39667448 4.2985595,4.30113454 C4.49307276,4.10638005 4.49307276,3.79403794 4.2985595,3.59928345 L3.06908891,2.36828809 C2.87457565,2.1735336 2.56262042,2.1735336 2.36810717,2.36828809 C2.17359391,2.56304258 2.17359391,2.87538469 2.36810717,3.07013918 L3.60124782,4.30113454 Z M15.2927121,14.5905103 C15.097877,14.3957558 14.7854058,14.3957558 14.5905707,14.5905103 C14.3957357,14.7852648 14.3957357,15.0976069 14.5905707,15.2923614 L15.8220752,16.5233568 C15.9176546,16.6188967 16.0463193,16.6666667 16.1713078,16.6666667 C16.2962963,16.6666667 16.4249609,16.6188967 16.5205404,16.5233568 C16.7153754,16.3286023 16.7153754,16.0162602 16.5205404,15.8215057 L15.2927121,14.5905103 Z" id="XMLID_49_"></path>
        </g>
    </g>
</svg>