<?xml version="1.0" encoding="UTF-8"?>
<svg width="20px" height="20px" viewBox="0 0 20 20" version="1.1" xmlns="http://www.w3.org/2000/svg" xmlns:xlink="http://www.w3.org/1999/xlink">
    <!-- Generator: Sketch 45.1 (43504) - http://www.bohemiancoding.com/sketch -->
    <title>Icon/Development</title>
    <desc>Created with Sketch.</desc>
    <defs></defs>
    <g id="Symbols" stroke="none" stroke-width="1" fill="none" fill-rule="evenodd">
        <g id="Icon/Development" fill-rule="nonzero" fill="#005C56">
            <path d="M19.2258812,0 L0.486731933,0 C0.225479143,0 0.0136702223,0.22597147 0.0136702223,0.504794084 L0.0136702223,13.113321 C0.0136702223,13.3921025 0.225479143,13.618115 0.486731933,13.618115 L19.2259197,13.618115 C19.4871725,13.618115 19.6989814,13.3921436 19.6989814,13.113321 L19.6989814,0.504794084 L19.6989814,0.504794084 C19.6989429,0.226053537 19.487134,0 19.2258812,0 Z" id="Shape"></path>
            <path d="M14.2019038,17.7000008 L13.1794807,17.702007 L11.8162179,17.702007 L11.8162179,15 L8.40810896,15 L8.40810896,17.702007 L7.04484615,17.702007 L6.02242308,17.702007 C5.4577691,17.702007 5,18.1672975 5,18.7412291 C5,19.3151607 5.4577691,19.7804513 6.02242308,19.7804513 L14.2019038,19.7804513 C14.7665578,19.7804513 15.2243269,19.3151607 15.2243269,18.7412291 C15.2243269,18.1673464 14.7665578,17.7000008 14.2019038,17.7000008 Z" id="Shape"></path>
        </g>
    </g>
</svg>